<svg width="100" height="100" viewBox="0 0 100 100" fill="none" xmlns="http://www.w3.org/2000/svg">
<rect x="24.5636" y="21.2818" width="7.28182" height="7.28182" fill="#FC0000"/>
<rect x="31.8453" y="21.2818" width="7.28182" height="7.28182" fill="#FC0000"/>
<rect x="24.5636" y="28.5635" width="7.28182" height="7.28182" fill="#FC0000"/>
<rect x="17.2817" y="28.5635" width="7.28182" height="7.28182" fill="#FC0000"/>
<rect x="17.2817" y="35.8455" width="7.28182" height="7.28182" fill="#FC0000"/>
<rect x="17.2817" y="43.1273" width="7.28182" height="7.28182" fill="#FC0000"/>
<rect x="24.5636" y="35.8455" width="7.28182" height="7.28182" fill="#FC0000"/>
<rect x="24.5636" y="43.1273" width="7.28182" height="7.28182" fill="#FC0000"/>
<rect x="24.5636" y="50.4091" width="7.28182" height="7.28182" fill="#FC0000"/>
<rect x="31.8453" y="35.8455" width="7.28182" height="7.28182" fill="#FC0000"/>
<rect x="31.8453" y="43.1273" width="7.28182" height="7.28182" fill="#FC0000"/>
<rect x="31.8453" y="50.4091" width="7.28182" height="7.28182" fill="#FC0000"/>
<rect x="31.8453" y="28.5635" width="7.28182" height="7.28182" fill="#FC0000"/>
<rect x="39.1271" y="21.2818" width="7.28182" height="7.28182" fill="#FC0000"/>
<rect x="39.1271" y="35.8455" width="7.28182" height="7.28182" fill="#FC0000"/>
<rect x="39.1271" y="43.1273" width="7.28182" height="7.28182" fill="#FC0000"/>
<rect x="39.1271" y="50.4091" width="7.28182" height="7.28182" fill="#FC0000"/>
<rect x="39.1271" y="28.5635" width="7.28182" height="7.28182" fill="#FC0000"/>
<rect x="46.4092" y="28.5635" width="7.28182" height="7.28182" fill="#FC0000"/>
<rect x="46.4092" y="21.2818" width="7.28182" height="7.28182" fill="#484848"/>
<rect x="39.1271" y="14" width="7.28182" height="7.28182" fill="#484848"/>
<rect x="31.8453" y="14" width="7.28182" height="7.28182" fill="#484848"/>
<rect x="24.5636" y="14" width="7.28182" height="7.28182" fill="#484848"/>
<rect x="17.2817" y="21.2818" width="7.28182" height="7.28182" fill="#484848"/>
<rect x="10" y="28.5635" width="7.28182" height="7.28182" fill="#484848"/>
<rect x="10" y="35.8455" width="7.28182" height="7.28182" fill="#484848"/>
<rect x="10" y="43.1273" width="7.28182" height="7.28182" fill="#484848"/>
<rect x="17.2817" y="50.4091" width="7.28182" height="7.28182" fill="#484848"/>
<rect x="24.5636" y="57.6909" width="7.28182" height="7.28182" fill="#484848"/>
<rect x="31.8453" y="64.9727" width="7.28182" height="7.28182" fill="#484848"/>
<rect x="39.1271" y="72.2545" width="7.28182" height="7.28182" fill="#484848"/>
<rect x="46.4092" y="79.5364" width="7.28182" height="7.28182" fill="#484848"/>
<rect x="53.6909" y="72.2545" width="7.28182" height="7.28182" fill="#484848"/>
<rect x="60.9728" y="64.9727" width="7.28182" height="7.28182" fill="#484848"/>
<rect x="68.2545" y="57.6909" width="7.28182" height="7.28182" fill="#484848"/>
<rect x="75.5363" y="50.4091" width="7.28182" height="7.28182" fill="#484848"/>
<rect x="82.8182" y="43.1273" width="7.28182" height="7.28182" fill="#484848"/>
<rect x="82.8182" y="35.8455" width="7.28182" height="7.28182" fill="#484848"/>
<rect x="82.8182" y="28.5635" width="7.28182" height="7.28182" fill="#484848"/>
<rect x="75.5363" y="21.2818" width="7.28182" height="7.28182" fill="#484848"/>
<rect x="68.2545" y="14" width="7.28182" height="7.28182" fill="#484848"/>
<rect x="60.9728" y="14" width="7.28182" height="7.28182" fill="#484848"/>
<rect x="53.6909" y="14" width="7.28182" height="7.28182" fill="#484848"/>
<rect x="46.4092" y="37.526" width="7.28182" height="7.28182" fill="#484848"/>
<rect x="46.4092" y="43.1273" width="7.28182" height="7.28182" fill="#FC0000"/>
<rect x="46.4092" y="50.4091" width="7.28182" height="7.28182" fill="#FC0000"/>
<rect x="46.4092" y="57.6909" width="7.28182" height="7.28182" fill="#FC0000"/>
<rect x="46.4092" y="35.8455" width="7.28182" height="7.28182" fill="#FC0000"/>
<rect x="53.6909" y="21.2818" width="7.28182" height="7.28182" fill="#FC0000"/>
<rect x="53.6909" y="35.8455" width="7.28182" height="7.28182" fill="#FC0000"/>
<rect x="53.6909" y="43.1273" width="7.28182" height="7.28182" fill="#FC0000"/>
<rect x="53.6909" y="50.4091" width="7.28182" height="7.28182" fill="#FC0000"/>
<rect x="53.6909" y="28.5635" width="7.28182" height="7.28182" fill="#FC0000"/>
<rect x="60.9728" y="43.1273" width="7.28182" height="7.28182" fill="#FC0000"/>
<rect x="60.9728" y="50.4091" width="7.28182" height="7.28182" fill="#FC0000"/>
<rect x="60.9728" y="57.6909" width="7.28182" height="7.28182" fill="#FC0000"/>
<rect x="53.6909" y="57.6909" width="7.28182" height="7.28182" fill="#FC0000"/>
<rect x="53.6909" y="64.9727" width="7.28182" height="7.28182" fill="#FC0000"/>
<rect x="46.4092" y="64.9727" width="7.28182" height="7.28182" fill="#FC0000"/>
<rect x="39.1271" y="57.6909" width="7.28182" height="7.28182" fill="#FC0000"/>
<rect x="31.8453" y="57.6909" width="7.28182" height="7.28182" fill="#FC0000"/>
<rect x="39.1271" y="64.9727" width="7.28182" height="7.28182" fill="#FC0000"/>
<rect x="46.4092" y="72.2545" width="7.28182" height="7.28182" fill="#FC0000"/>
<rect x="60.9728" y="35.8455" width="7.28182" height="7.28182" fill="#FC0000"/>
<rect x="60.9728" y="21.2818" width="7.28182" height="7.28182" fill="#FC0000"/>
<rect x="68.2545" y="21.2818" width="7.28182" height="7.28182" fill="#FC0000"/>
<rect x="68.2545" y="28.5635" width="7.28182" height="7.28182" fill="#FC0000"/>
<rect x="75.5363" y="28.5635" width="7.28182" height="7.28182" fill="#FC0000"/>
<rect x="75.5363" y="35.8455" width="7.28182" height="7.28182" fill="#FC0000"/>
<rect x="75.5363" y="43.1273" width="7.28182" height="7.28182" fill="#FC0000"/>
<rect x="68.2545" y="43.1273" width="7.28182" height="7.28182" fill="#FC0000"/>
<rect x="68.2545" y="50.4091" width="7.28182" height="7.28182" fill="#FC0000"/>
</svg>
