<svg width="250" height="250" viewBox="0 0 250 250" fill="none" xmlns="http://www.w3.org/2000/svg">
<rect x="66.0001" y="82" width="6" height="6" fill="#505050"/>
<rect x="66.0001" y="100" width="6" height="6" fill="#505050"/>
<rect x="78.0001" y="88" width="6" height="6" fill="#505050"/>
<rect x="60.0001" y="88" width="6" height="6" fill="#777777"/>
<rect x="72.0001" y="76" width="6" height="6" fill="#777777"/>
<rect x="84.0001" y="82" width="6" height="6" fill="#777777"/>
<rect x="72.0001" y="94" width="6" height="6" fill="#777777"/>
<rect x="54.0001" y="76" width="6" height="6" fill="#2B2B2B"/>
<rect x="60.0001" y="76" width="6" height="6" fill="#2B2B2B"/>
<rect x="66.0001" y="76" width="6" height="6" fill="#2B2B2B"/>
<rect x="48.0001" y="82" width="6" height="6" fill="#2B2B2B"/>
<rect x="54.0001" y="82" width="6" height="6" fill="#2B2B2B"/>
<rect x="60.0001" y="82" width="6" height="6" fill="#2B2B2B"/>
<rect x="48.0001" y="88" width="6" height="6" fill="#2B2B2B"/>
<rect x="54.0001" y="88" width="6" height="6" fill="#2B2B2B"/>
<rect x="66.0001" y="88" width="6" height="6" fill="#2B2B2B"/>
<rect x="54.0001" y="94" width="6" height="6" fill="#2B2B2B"/>
<rect x="60.0001" y="94" width="6" height="6" fill="#2B2B2B"/>
<rect x="66.0001" y="94" width="6" height="6" fill="#2B2B2B"/>
<rect x="60.0001" y="100" width="6" height="6" fill="#2B2B2B"/>
<rect x="66.0001" y="106" width="6" height="6" fill="#2B2B2B"/>
<rect x="78.0001" y="76" width="6" height="6" fill="#2B2B2B"/>
<rect x="84.0001" y="76" width="6" height="6" fill="#2B2B2B"/>
<rect x="72.0001" y="82" width="6" height="6" fill="#2B2B2B"/>
<rect x="78.0001" y="82" width="6" height="6" fill="#2B2B2B"/>
<rect x="72.0001" y="88" width="6" height="6" fill="#2B2B2B"/>
<rect x="84.0001" y="88" width="6" height="6" fill="#2B2B2B"/>
<rect x="78.0001" y="94" width="6" height="6" fill="#2B2B2B"/>
<rect x="84.0001" y="94" width="6" height="6" fill="#2B2B2B"/>
<rect x="72.0001" y="100" width="6" height="6" fill="#2B2B2B"/>
<rect x="78.0001" y="100" width="6" height="6" fill="#2B2B2B"/>
<rect x="84.0001" y="100" width="6" height="6" fill="#2B2B2B"/>
<rect x="72.0001" y="106" width="6" height="6" fill="#2B2B2B"/>
<rect x="78.0001" y="106" width="6" height="6" fill="#2B2B2B"/>
<rect x="54.0001" y="64" width="6" height="6" fill="white"/>
<rect x="60.0001" y="64" width="6" height="6" fill="white"/>
<rect x="66.0001" y="64" width="6" height="6" fill="white"/>
<rect x="48.0001" y="70" width="6" height="6" fill="white"/>
<rect x="54.0001" y="70" width="6" height="6" fill="white"/>
<rect x="60.0001" y="70" width="6" height="6" fill="white"/>
<rect x="66.0001" y="70" width="6" height="6" fill="white"/>
<rect x="48.0001" y="76" width="6" height="6" fill="white"/>
<rect x="48.0001" y="94" width="6" height="6" fill="white"/>
<rect x="48.0001" y="100" width="6" height="6" fill="white"/>
<rect x="54.0001" y="100" width="6" height="6" fill="white"/>
<rect x="54.0001" y="106" width="6" height="6" fill="white"/>
<rect x="60.0001" y="106" width="6" height="6" fill="white"/>
<rect x="42.0001" y="70" width="6" height="6" fill="#D0D0D0"/>
<rect x="42.0001" y="76" width="6" height="6" fill="#D0D0D0"/>
<rect x="48.0001" y="64" width="6" height="6" fill="#D0D0D0"/>
<rect x="42.0001" y="82" width="6" height="6" fill="#D0D0D0"/>
<rect x="42.0001" y="88" width="6" height="6" fill="#D0D0D0"/>
<rect x="42.0001" y="94" width="6" height="6" fill="#D0D0D0"/>
<rect x="42.0001" y="100" width="6" height="6" fill="#D0D0D0"/>
<rect x="48.0001" y="106" width="6" height="6" fill="#D0D0D0"/>
<rect x="54.0001" y="112" width="6" height="6" fill="#D0D0D0"/>
<rect x="60.0001" y="112" width="6" height="6" fill="white"/>
<rect x="66.0001" y="112" width="6" height="6" fill="white"/>
<rect x="72.0001" y="64" width="6" height="6" fill="white"/>
<rect x="72.0001" y="70" width="6" height="6" fill="white"/>
<rect x="78.0001" y="70" width="6" height="6" fill="white"/>
<rect x="72.0001" y="112" width="6" height="6" fill="white"/>
<rect x="78.0001" y="112" width="6" height="6" fill="white"/>
<rect x="42.0001" y="64" width="6" height="6" fill="#474747"/>
<rect x="36.0001" y="70" width="6" height="6" fill="#474747"/>
<rect x="36.0001" y="76" width="6" height="6" fill="#474747"/>
<rect x="48.0001" y="58" width="6" height="6" fill="#474747"/>
<rect x="54.0001" y="58" width="6" height="6" fill="#474747"/>
<rect x="60.0001" y="58" width="6" height="6" fill="#474747"/>
<rect x="66.0001" y="58" width="6" height="6" fill="#474747"/>
<rect x="36.0001" y="82" width="6" height="6" fill="#474747"/>
<rect x="36.0001" y="88" width="6" height="6" fill="#474747"/>
<rect x="36.0001" y="94" width="6" height="6" fill="#474747"/>
<rect x="36.0001" y="100" width="6" height="6" fill="#474747"/>
<rect x="42.0001" y="106" width="6" height="6" fill="#474747"/>
<rect x="48.0001" y="112" width="6" height="6" fill="#474747"/>
<rect x="54.0001" y="118" width="6" height="6" fill="#474747"/>
<rect x="60.0001" y="118" width="6" height="6" fill="#474747"/>
<rect x="66.0001" y="118" width="6" height="6" fill="#474747"/>
<rect x="72.0001" y="58" width="6" height="6" fill="#474747"/>
<rect x="78.0001" y="64" width="6" height="6" fill="#474747"/>
<rect x="84.0001" y="70" width="6" height="6" fill="#474747"/>
<rect x="84.0001" y="106" width="6" height="6" fill="#474747"/>
<rect x="84.0001" y="112" width="6" height="6" fill="#474747"/>
<rect x="72.0001" y="118" width="6" height="6" fill="#474747"/>
<rect x="78.0001" y="118" width="6" height="6" fill="#474747"/>
<rect x="48.0001" y="196" width="6" height="6" fill="#858585"/>
<rect x="54.0001" y="196" width="6" height="6" fill="#858585"/>
<rect x="54.0001" y="202" width="6" height="6" fill="#858585"/>
<rect x="54.0001" y="208" width="6" height="6" fill="#858585"/>
<rect x="48.0001" y="214" width="6" height="6" fill="#858585"/>
<rect x="54.0001" y="214" width="6" height="6" fill="#858585"/>
<rect x="60.0001" y="196" width="6" height="6" fill="#858585"/>
<rect x="72.0001" y="196" width="6" height="6" fill="#858585"/>
<rect x="78.0001" y="196" width="6" height="6" fill="#858585"/>
<rect x="72.0001" y="202" width="6" height="6" fill="#858585"/>
<rect x="72.0001" y="208" width="6" height="6" fill="#858585"/>
<rect x="60.0001" y="214" width="6" height="6" fill="#858585"/>
<rect x="72.0001" y="214" width="6" height="6" fill="#858585"/>
<rect x="78.0001" y="214" width="6" height="6" fill="#858585"/>
<rect x="72.0001" y="226" width="6" height="6" fill="#474747"/>
<rect x="78.0001" y="226" width="6" height="6" fill="#474747"/>
<rect x="54.0001" y="178" width="6" height="6" fill="white"/>
<rect x="54.0001" y="184" width="6" height="6" fill="white"/>
<rect x="54.0001" y="190" width="6" height="6" fill="white"/>
<rect x="48.0001" y="232" width="6" height="6" fill="#9B9B9B"/>
<rect x="54.0001" y="232" width="6" height="6" fill="#9B9B9B"/>
<rect x="48.0001" y="238" width="6" height="6" fill="#9B9B9B"/>
<rect x="54.0001" y="238" width="6" height="6" fill="#9B9B9B"/>
<rect x="60.0001" y="178" width="6" height="6" fill="white"/>
<rect x="78.0001" y="178" width="6" height="6" fill="white"/>
<rect x="60.0001" y="184" width="6" height="6" fill="white"/>
<rect x="78.0001" y="184" width="6" height="6" fill="white"/>
<rect x="60.0001" y="190" width="6" height="6" fill="white"/>
<rect x="78.0001" y="190" width="6" height="6" fill="white"/>
<rect x="60.0001" y="202" width="6" height="6" fill="white"/>
<rect x="78.0001" y="202" width="6" height="6" fill="white"/>
<rect x="60.0001" y="208" width="6" height="6" fill="white"/>
<rect x="78.0001" y="208" width="6" height="6" fill="white"/>
<rect x="48.0001" y="190" width="6" height="6" fill="#D0D0D0"/>
<rect x="48.0001" y="184" width="6" height="6" fill="#D0D0D0"/>
<rect x="48.0001" y="178" width="6" height="6" fill="#D0D0D0"/>
<rect x="48.0001" y="202" width="6" height="6" fill="#D0D0D0"/>
<rect x="48.0001" y="208" width="6" height="6" fill="#D0D0D0"/>
<rect x="48.0001" y="220" width="6" height="6" fill="#D0D0D0"/>
<rect x="54.0001" y="220" width="6" height="6" fill="#D0D0D0"/>
<rect x="72.0001" y="178" width="6" height="6" fill="#D0D0D0"/>
<rect x="72.0001" y="184" width="6" height="6" fill="#D0D0D0"/>
<rect x="72.0001" y="190" width="6" height="6" fill="#D0D0D0"/>
<rect x="60.0001" y="220" width="6" height="6" fill="#D0D0D0"/>
<rect x="72.0001" y="220" width="6" height="6" fill="#D0D0D0"/>
<rect x="78.0001" y="220" width="6" height="6" fill="#D0D0D0"/>
<rect x="60.0001" y="232" width="6" height="6" fill="#9B9B9B"/>
<rect x="72.0001" y="232" width="6" height="6" fill="#9B9B9B"/>
<rect x="78.0001" y="232" width="6" height="6" fill="#9B9B9B"/>
<rect x="60.0001" y="238" width="6" height="6" fill="#9B9B9B"/>
<rect x="66.0001" y="238" width="6" height="6" fill="#9B9B9B"/>
<rect x="78.0001" y="238" width="6" height="6" fill="#9B9B9B"/>
<rect x="84.0001" y="238" width="6" height="6" fill="#9B9B9B"/>
<rect x="66.0001" y="142" width="6" height="6" fill="#60D9FF"/>
<rect x="72.0001" y="142" width="6" height="6" fill="#60D9FF"/>
<rect x="66" y="136" width="6" height="6" fill="#60D9FF"/>
<rect x="72" y="136" width="6" height="6" fill="#60D9FF"/>
<rect x="66.0001" y="148" width="6" height="6" fill="#60D9FF"/>
<rect x="72.0001" y="148" width="6" height="6" fill="#60D9FF"/>
<rect x="42.0001" y="118" width="6" height="6" fill="#858585"/>
<rect x="48.0001" y="118" width="6" height="6" fill="white"/>
<rect x="42.0001" y="124" width="6" height="6" fill="#858585"/>
<rect x="48.0001" y="124" width="6" height="6" fill="white"/>
<rect x="54.0001" y="124" width="6" height="6" fill="#EBEBEB"/>
<rect x="48.0001" y="130" width="6" height="6" fill="white"/>
<rect x="54.0001" y="130" width="6" height="6" fill="white"/>
<rect x="54.0001" y="136" width="6" height="6" fill="white"/>
<rect x="60.0001" y="124" width="6" height="6" fill="#EBEBEB"/>
<rect x="66.0001" y="124" width="6" height="6" fill="#EBEBEB"/>
<rect x="72.0001" y="124" width="6" height="6" fill="#EBEBEB"/>
<rect x="78.0001" y="124" width="6" height="6" fill="#EBEBEB"/>
<rect x="60.0001" y="130" width="6" height="6" fill="white"/>
<rect x="66.0001" y="130" width="6" height="6" fill="white"/>
<rect x="72.0001" y="130" width="6" height="6" fill="#EBEBEB"/>
<rect x="78.0001" y="130" width="6" height="6" fill="#EBEBEB"/>
<rect x="84.0001" y="118" width="6" height="6" fill="#474747"/>
<rect x="84.0001" y="124" width="6" height="6" fill="white"/>
<rect x="84.0001" y="130" width="6" height="6" fill="white"/>
<rect x="60.0001" y="136" width="6" height="6" fill="white"/>
<rect x="66" y="148" width="6" height="6" fill="white"/>
<rect x="72" y="148" width="6" height="6" fill="white"/>
<rect x="78.0001" y="136" width="6" height="6" fill="#EBEBEB"/>
<rect x="60.0001" y="142" width="6" height="6" fill="white"/>
<rect x="78.0001" y="142" width="6" height="6" fill="#EBEBEB"/>
<rect x="60.0001" y="148" width="6" height="6" fill="white"/>
<rect x="78.0001" y="148" width="6" height="6" fill="#EBEBEB"/>
<rect x="60.0001" y="154" width="6" height="6" fill="white"/>
<rect x="66.0001" y="154" width="6" height="6" fill="white"/>
<rect x="72.0001" y="154" width="6" height="6" fill="white"/>
<rect x="78.0001" y="154" width="6" height="6" fill="#EBEBEB"/>
<rect x="60.0001" y="160" width="6" height="6" fill="white"/>
<rect x="66.0001" y="160" width="6" height="6" fill="white"/>
<rect x="72.0001" y="160" width="6" height="6" fill="white"/>
<rect x="78.0001" y="160" width="6" height="6" fill="white"/>
<rect x="48" y="136" width="6" height="6" fill="#D0D0D0"/>
<rect x="54.0001" y="148" width="6" height="6" fill="white"/>
<rect x="54" y="142" width="6" height="6" fill="white"/>
<rect x="54.0001" y="154" width="6" height="6" fill="white"/>
<rect x="54.0001" y="160" width="6" height="6" fill="#D0D0D0"/>
<rect x="54.0001" y="166" width="6" height="6" fill="#D0D0D0"/>
<rect x="48" y="142" width="6" height="6" fill="#D0D0D0"/>
<rect x="48" y="148" width="6" height="6" fill="#D0D0D0"/>
<rect x="48" y="154" width="6" height="6" fill="#D0D0D0"/>
<rect x="48" y="160" width="6" height="6" fill="#D0D0D0"/>
<rect x="48" y="166" width="6" height="6" fill="#D0D0D0"/>
<rect x="60.0001" y="166" width="6" height="6" fill="#D0D0D0"/>
<rect x="66.0001" y="166" width="6" height="6" fill="#D0D0D0"/>
<rect x="72.0001" y="166" width="6" height="6" fill="#D0D0D0"/>
<rect x="78.0001" y="166" width="6" height="6" fill="#D0D0D0"/>
<rect x="54.0001" y="172" width="6" height="6" fill="#474747"/>
<rect x="42" y="190" width="6" height="6" fill="#474747"/>
<rect x="42" y="184" width="6" height="6" fill="#474747"/>
<rect x="42" y="178" width="6" height="6" fill="#474747"/>
<rect x="42" y="172" width="6" height="6" fill="#474747"/>
<rect x="48" y="172" width="6" height="6" fill="#474747"/>
<rect x="42" y="166" width="6" height="6" fill="#474747"/>
<rect x="42" y="160" width="6" height="6" fill="#474747"/>
<rect x="42" y="154" width="6" height="6" fill="#474747"/>
<rect x="42" y="148" width="6" height="6" fill="#474747"/>
<rect x="42" y="142" width="6" height="6" fill="#474747"/>
<rect x="42" y="136" width="6" height="6" fill="#474747"/>
<rect x="42" y="130" width="6" height="6" fill="white"/>
<rect x="42" y="124" width="6" height="6" fill="white"/>
<rect x="42" y="118" width="6" height="6" fill="#474747"/>
<rect x="42.0001" y="196" width="6" height="6" fill="#474747"/>
<rect x="42.0001" y="202" width="6" height="6" fill="#474747"/>
<rect x="42.0001" y="208" width="6" height="6" fill="#474747"/>
<rect x="42.0001" y="214" width="6" height="6" fill="#474747"/>
<rect x="42.0001" y="220" width="6" height="6" fill="#474747"/>
<rect x="42.0001" y="226" width="6" height="6" fill="#474747"/>
<rect x="48.0001" y="226" width="6" height="6" fill="#474747"/>
<rect x="54.0001" y="226" width="6" height="6" fill="#474747"/>
<rect x="42.0001" y="232" width="6" height="6" fill="#474747"/>
<rect x="42.0001" y="238" width="6" height="6" fill="#474747"/>
<rect x="42.0001" y="244" width="6" height="6" fill="#474747"/>
<rect x="48.0001" y="244" width="6" height="6" fill="#474747"/>
<rect x="54.0001" y="244" width="6" height="6" fill="#474747"/>
<rect x="60.0001" y="172" width="6" height="6" fill="#474747"/>
<rect x="66.0001" y="172" width="6" height="6" fill="#474747"/>
<rect x="72.0001" y="172" width="6" height="6" fill="#474747"/>
<rect x="78.0001" y="172" width="6" height="6" fill="#474747"/>
<rect x="66.0001" y="178" width="6" height="6" fill="#474747"/>
<rect x="66.0001" y="184" width="6" height="6" fill="#474747"/>
<rect x="66.0001" y="190" width="6" height="6" fill="#474747"/>
<rect x="66.0001" y="196" width="6" height="6" fill="#474747"/>
<rect x="66.0001" y="202" width="6" height="6" fill="#474747"/>
<rect x="84.0001" y="172" width="6" height="6" fill="#474747"/>
<rect x="84.0001" y="178" width="6" height="6" fill="#474747"/>
<rect x="84.0001" y="184" width="6" height="6" fill="#474747"/>
<rect x="84.0001" y="190" width="6" height="6" fill="#474747"/>
<rect x="84.0001" y="196" width="6" height="6" fill="#474747"/>
<rect x="84.0001" y="202" width="6" height="6" fill="#474747"/>
<rect x="66.0001" y="208" width="6" height="6" fill="#474747"/>
<rect x="66.0001" y="214" width="6" height="6" fill="#474747"/>
<rect x="66.0001" y="220" width="6" height="6" fill="#474747"/>
<rect x="60.0001" y="226" width="6" height="6" fill="#474747"/>
<rect x="66.0001" y="226" width="6" height="6" fill="#474747"/>
<rect x="66.0001" y="232" width="6" height="6" fill="#474747"/>
<rect x="72.0001" y="238" width="6" height="6" fill="#474747"/>
<rect x="84.0001" y="208" width="6" height="6" fill="#474747"/>
<rect x="84.0001" y="214" width="6" height="6" fill="#474747"/>
<rect x="84.0001" y="220" width="6" height="6" fill="#474747"/>
<rect x="84.0001" y="226" width="6" height="6" fill="#474747"/>
<rect x="84.0001" y="232" width="6" height="6" fill="#474747"/>
<rect x="90.0001" y="238" width="6" height="6" fill="#474747"/>
<rect x="60.0001" y="244" width="6" height="6" fill="#474747"/>
<rect x="66.0001" y="244" width="6" height="6" fill="#474747"/>
<rect x="72.0001" y="244" width="6" height="6" fill="#474747"/>
<rect x="78.0001" y="244" width="6" height="6" fill="#474747"/>
<rect x="84.0001" y="244" width="6" height="6" fill="#474747"/>
<rect x="90.0001" y="244" width="6" height="6" fill="#474747"/>
<rect x="84.0001" y="136" width="6" height="6" fill="#474747"/>
<rect x="84.0001" y="142" width="6" height="6" fill="#474747"/>
<rect x="84.0001" y="148" width="6" height="6" fill="#474747"/>
<rect x="84.0001" y="154" width="6" height="6" fill="#474747"/>
<rect x="84.0001" y="160" width="6" height="6" fill="#474747"/>
<rect x="84.0001" y="166" width="6" height="6" fill="#474747"/>
<rect width="6" height="6" transform="matrix(1 0 0 -1 6 100)" fill="#9B9B9B"/>
<rect width="6" height="6" transform="matrix(1 0 0 -1 36 130)" fill="white"/>
<rect width="6" height="6" transform="matrix(1 0 0 -1 36 124)" fill="white"/>
<rect width="6" height="6" transform="matrix(1 0 0 -1 30 124)" fill="white"/>
<rect width="6" height="6" transform="matrix(1 0 0 -1 30 118)" fill="white"/>
<rect width="6" height="6" transform="matrix(1 0 0 -1 24 118)" fill="white"/>
<rect width="6" height="6" transform="matrix(1 0 0 -1 24 112)" fill="white"/>
<rect width="6" height="6" transform="matrix(1 0 0 -1 18 112)" fill="white"/>
<rect width="6" height="6" transform="matrix(1 0 0 -1 18 106)" fill="white"/>
<rect width="6" height="6" transform="matrix(1 0 0 -1 12 106)" fill="white"/>
<rect width="6" height="6" transform="matrix(1 0 0 -1 12 100)" fill="white"/>
<rect width="6" height="6" transform="matrix(1 0 0 -1 36 136)" fill="#D0D0D0"/>
<rect width="6" height="6" transform="matrix(1 0 0 -1 30 130)" fill="#D0D0D0"/>
<rect width="6" height="6" transform="matrix(1 0 0 -1 24 124)" fill="#D0D0D0"/>
<rect width="6" height="6" transform="matrix(1 0 0 -1 18 118)" fill="#D0D0D0"/>
<rect width="6" height="6" transform="matrix(1 0 0 -1 12 112)" fill="#D0D0D0"/>
<rect width="6" height="6" transform="matrix(1 0 0 -1 6 106)" fill="#D0D0D0"/>
<rect width="6" height="6" transform="matrix(1 0 0 -1 36 142)" fill="#474747"/>
<rect width="6" height="6" transform="matrix(1 0 0 -1 30 136)" fill="#474747"/>
<rect width="6" height="6" transform="matrix(1 0 0 -1 24 130)" fill="#474747"/>
<rect width="6" height="6" transform="matrix(1 0 0 -1 12 118)" fill="#474747"/>
<rect width="6" height="6" transform="matrix(1 0 0 -1 18 100)" fill="#474747"/>
<rect width="6" height="6" transform="matrix(1 0 0 -1 12 100)" fill="#474747"/>
<rect width="6" height="6" transform="matrix(1 0 0 -1 6 106)" fill="#474747"/>
<rect width="6" height="6" transform="matrix(1 0 0 -1 0 106)" fill="#474747"/>
<rect width="6" height="6" transform="matrix(1 0 0 -1 0 94)" fill="#474747"/>
<rect width="6" height="6" transform="matrix(1 0 0 -1 36 118)" fill="#474747"/>
<path d="M30 112H36V106H30V112Z" fill="#474747"/>
<rect width="6" height="6" transform="matrix(1 0 0 -1 24 106)" fill="#474747"/>
<rect width="6" height="6" transform="matrix(1 0 0 -1 18 124)" fill="#474747"/>
<rect width="6" height="6" transform="matrix(1 0 0 -1 6 112)" fill="#474747"/>
<rect width="6" height="6" transform="matrix(1 0 0 -1 12 94)" fill="#474747"/>
<rect width="6" height="6" transform="matrix(1 0 0 -1 6 94)" fill="#9B9B9B"/>
<rect width="6" height="6" transform="matrix(1 0 0 -1 0 100)" fill="#9B9B9B"/>
<rect x="125.238" y="100.746" width="5.87302" height="5.87302" transform="rotate(-180 125.238 100.746)" fill="#9B9B9B"/>
<rect x="95.873" y="130.111" width="5.87302" height="5.87302" transform="rotate(-180 95.873 130.111)" fill="#D0D0D0"/>
<rect x="95.873" y="124.238" width="5.87302" height="5.87302" transform="rotate(-180 95.873 124.238)" fill="#D0D0D0"/>
<rect x="101.746" y="124.238" width="5.87302" height="5.87302" transform="rotate(-180 101.746 124.238)" fill="#D0D0D0"/>
<rect x="101.746" y="118.365" width="5.87302" height="5.87302" transform="rotate(-180 101.746 118.365)" fill="#D0D0D0"/>
<rect x="107.619" y="118.365" width="5.87302" height="5.87302" transform="rotate(-180 107.619 118.365)" fill="#D0D0D0"/>
<rect x="107.619" y="112.492" width="5.87302" height="5.87302" transform="rotate(-180 107.619 112.492)" fill="#D0D0D0"/>
<rect x="113.492" y="112.492" width="5.87302" height="5.87302" transform="rotate(-180 113.492 112.492)" fill="#D0D0D0"/>
<rect x="113.492" y="106.619" width="5.87302" height="5.87302" transform="rotate(-180 113.492 106.619)" fill="#D0D0D0"/>
<rect x="119.365" y="106.619" width="5.87302" height="5.87302" transform="rotate(-180 119.365 106.619)" fill="#D0D0D0"/>
<rect x="119.365" y="100.746" width="5.87302" height="5.87302" transform="rotate(-180 119.365 100.746)" fill="white"/>
<rect x="95.873" y="135.984" width="5.87302" height="5.87302" transform="rotate(-180 95.873 135.984)" fill="#A5A5A5"/>
<rect x="101.746" y="130.111" width="5.87302" height="5.87302" transform="rotate(-180 101.746 130.111)" fill="#A5A5A5"/>
<rect x="107.619" y="124.238" width="5.87302" height="5.87302" transform="rotate(-180 107.619 124.238)" fill="#A5A5A5"/>
<rect x="113.492" y="118.365" width="5.87302" height="5.87302" transform="rotate(-180 113.492 118.365)" fill="#A5A5A5"/>
<rect x="119.365" y="112.492" width="5.87302" height="5.87302" transform="rotate(-180 119.365 112.492)" fill="#A5A5A5"/>
<rect x="125.238" y="106.619" width="5.87302" height="5.87302" transform="rotate(-180 125.238 106.619)" fill="#D0D0D0"/>
<rect x="95.873" y="141.857" width="5.87302" height="5.87302" transform="rotate(-180 95.873 141.857)" fill="#474747"/>
<rect x="101.746" y="135.984" width="5.87302" height="5.87302" transform="rotate(-180 101.746 135.984)" fill="#474747"/>
<rect x="107.619" y="130.111" width="5.87302" height="5.87302" transform="rotate(-180 107.619 130.111)" fill="#474747"/>
<rect x="119.365" y="118.365" width="5.87302" height="5.87302" transform="rotate(-180 119.365 118.365)" fill="#474747"/>
<rect x="113.492" y="100.746" width="5.87302" height="5.87302" transform="rotate(-180 113.492 100.746)" fill="#474747"/>
<rect x="119.365" y="100.746" width="5.87302" height="5.87302" transform="rotate(-180 119.365 100.746)" fill="#474747"/>
<rect x="125.238" y="106.619" width="5.87302" height="5.87302" transform="rotate(-180 125.238 106.619)" fill="#474747"/>
<rect x="131.111" y="106.619" width="5.87302" height="5.87302" transform="rotate(-180 131.111 106.619)" fill="#474747"/>
<rect x="131.111" y="94.873" width="5.87302" height="5.87302" transform="rotate(-180 131.111 94.873)" fill="#474747"/>
<rect x="95.873" y="118.365" width="5.87302" height="5.87302" transform="rotate(-180 95.873 118.365)" fill="#474747"/>
<path d="M101.746 112.492H95.873V106.619H101.746V112.492Z" fill="#474747"/>
<rect x="107.619" y="106.619" width="5.87302" height="5.87302" transform="rotate(-180 107.619 106.619)" fill="#474747"/>
<rect x="113.492" y="124.238" width="5.87302" height="5.87302" transform="rotate(-180 113.492 124.238)" fill="#474747"/>
<rect x="125.238" y="112.492" width="5.87302" height="5.87302" transform="rotate(-180 125.238 112.492)" fill="#474747"/>
<rect x="119.365" y="94.873" width="5.87302" height="5.87302" transform="rotate(-180 119.365 94.873)" fill="#474747"/>
<rect x="125.238" y="94.873" width="5.87302" height="5.87302" transform="rotate(-180 125.238 94.873)" fill="#9B9B9B"/>
<rect x="131.111" y="100.746" width="5.87302" height="5.87302" transform="rotate(-180 131.111 100.746)" fill="#9B9B9B"/>
</svg>
