<svg width="250" height="250" viewBox="0 0 250 250" fill="none" xmlns="http://www.w3.org/2000/svg">
<rect x="56" y="82" width="6" height="6" fill="#505050"/>
<rect x="56" y="100" width="6" height="6" fill="#505050"/>
<rect x="68" y="88" width="6" height="6" fill="#505050"/>
<rect x="50" y="88" width="6" height="6" fill="#777777"/>
<rect x="62" y="76" width="6" height="6" fill="#777777"/>
<rect x="74" y="82" width="6" height="6" fill="#777777"/>
<rect x="62" y="94" width="6" height="6" fill="#777777"/>
<rect x="44" y="76" width="6" height="6" fill="#2B2B2B"/>
<rect x="50" y="76" width="6" height="6" fill="#2B2B2B"/>
<rect x="56" y="76" width="6" height="6" fill="#2B2B2B"/>
<rect x="38" y="82" width="6" height="6" fill="#2B2B2B"/>
<rect x="44" y="82" width="6" height="6" fill="#2B2B2B"/>
<rect x="50" y="82" width="6" height="6" fill="#2B2B2B"/>
<rect x="38" y="88" width="6" height="6" fill="#2B2B2B"/>
<rect x="44" y="88" width="6" height="6" fill="#2B2B2B"/>
<rect x="56" y="88" width="6" height="6" fill="#2B2B2B"/>
<rect x="44" y="94" width="6" height="6" fill="#2B2B2B"/>
<rect x="50" y="94" width="6" height="6" fill="#2B2B2B"/>
<rect x="56" y="94" width="6" height="6" fill="#2B2B2B"/>
<rect x="50" y="100" width="6" height="6" fill="#2B2B2B"/>
<rect x="56" y="106" width="6" height="6" fill="#2B2B2B"/>
<rect x="68" y="76" width="6" height="6" fill="#2B2B2B"/>
<rect x="74" y="76" width="6" height="6" fill="#2B2B2B"/>
<rect x="62" y="82" width="6" height="6" fill="#2B2B2B"/>
<rect x="68" y="82" width="6" height="6" fill="#2B2B2B"/>
<rect x="62" y="88" width="6" height="6" fill="#2B2B2B"/>
<rect x="74" y="88" width="6" height="6" fill="#2B2B2B"/>
<rect x="68" y="94" width="6" height="6" fill="#2B2B2B"/>
<rect x="74" y="94" width="6" height="6" fill="#2B2B2B"/>
<rect x="62" y="100" width="6" height="6" fill="#2B2B2B"/>
<rect x="68" y="100" width="6" height="6" fill="#2B2B2B"/>
<rect x="74" y="100" width="6" height="6" fill="#2B2B2B"/>
<rect x="62" y="106" width="6" height="6" fill="#2B2B2B"/>
<rect x="68" y="106" width="6" height="6" fill="#2B2B2B"/>
<rect x="44" y="64" width="6" height="6" fill="white"/>
<rect x="50" y="64" width="6" height="6" fill="white"/>
<rect x="56" y="64" width="6" height="6" fill="white"/>
<rect x="38" y="70" width="6" height="6" fill="white"/>
<rect x="44" y="70" width="6" height="6" fill="white"/>
<rect x="50" y="70" width="6" height="6" fill="white"/>
<rect x="56" y="70" width="6" height="6" fill="white"/>
<rect x="38" y="76" width="6" height="6" fill="white"/>
<rect x="38" y="94" width="6" height="6" fill="white"/>
<rect x="38" y="100" width="6" height="6" fill="white"/>
<rect x="44" y="100" width="6" height="6" fill="white"/>
<rect x="44" y="106" width="6" height="6" fill="white"/>
<rect x="50" y="106" width="6" height="6" fill="white"/>
<rect x="32" y="70" width="6" height="6" fill="#D0D0D0"/>
<rect x="32" y="76" width="6" height="6" fill="#D0D0D0"/>
<rect x="38" y="64" width="6" height="6" fill="#D0D0D0"/>
<rect x="32" y="82" width="6" height="6" fill="#D0D0D0"/>
<rect x="32" y="88" width="6" height="6" fill="#D0D0D0"/>
<rect x="32" y="94" width="6" height="6" fill="#D0D0D0"/>
<rect x="32" y="100" width="6" height="6" fill="#D0D0D0"/>
<rect x="38" y="106" width="6" height="6" fill="#D0D0D0"/>
<rect x="44" y="112" width="6" height="6" fill="#D0D0D0"/>
<rect x="50" y="112" width="6" height="6" fill="white"/>
<rect x="56" y="112" width="6" height="6" fill="white"/>
<rect x="62" y="64" width="6" height="6" fill="white"/>
<rect x="62" y="70" width="6" height="6" fill="white"/>
<rect x="68" y="70" width="6" height="6" fill="white"/>
<rect x="62" y="112" width="6" height="6" fill="white"/>
<rect x="68" y="112" width="6" height="6" fill="white"/>
<rect x="32" y="64" width="6" height="6" fill="#474747"/>
<rect x="26" y="70" width="6" height="6" fill="#474747"/>
<rect x="26" y="76" width="6" height="6" fill="#474747"/>
<rect x="38" y="58" width="6" height="6" fill="#474747"/>
<rect x="44" y="58" width="6" height="6" fill="#474747"/>
<rect x="50" y="58" width="6" height="6" fill="#474747"/>
<rect x="56" y="58" width="6" height="6" fill="#474747"/>
<rect x="26" y="82" width="6" height="6" fill="#474747"/>
<rect x="26" y="88" width="6" height="6" fill="#474747"/>
<rect x="26" y="94" width="6" height="6" fill="#474747"/>
<rect x="26" y="100" width="6" height="6" fill="#474747"/>
<rect x="32" y="106" width="6" height="6" fill="#474747"/>
<rect x="38" y="112" width="6" height="6" fill="#474747"/>
<rect x="44" y="118" width="6" height="6" fill="#474747"/>
<rect x="50" y="118" width="6" height="6" fill="#474747"/>
<rect x="56" y="118" width="6" height="6" fill="#474747"/>
<rect x="62" y="58" width="6" height="6" fill="#474747"/>
<rect x="68" y="64" width="6" height="6" fill="#474747"/>
<rect x="74" y="70" width="6" height="6" fill="#474747"/>
<rect x="74" y="106" width="6" height="6" fill="#474747"/>
<rect x="74" y="112" width="6" height="6" fill="#474747"/>
<rect x="62" y="118" width="6" height="6" fill="#474747"/>
<rect x="68" y="118" width="6" height="6" fill="#474747"/>
<rect x="38" y="196" width="6" height="6" fill="#858585"/>
<rect x="44" y="196" width="6" height="6" fill="#858585"/>
<rect x="44" y="202" width="6" height="6" fill="#858585"/>
<rect x="44" y="208" width="6" height="6" fill="#858585"/>
<rect x="38" y="214" width="6" height="6" fill="#858585"/>
<rect x="44" y="214" width="6" height="6" fill="#858585"/>
<rect x="50" y="196" width="6" height="6" fill="#858585"/>
<rect x="62" y="196" width="6" height="6" fill="#858585"/>
<rect x="68" y="196" width="6" height="6" fill="#858585"/>
<rect x="62" y="202" width="6" height="6" fill="#858585"/>
<rect x="62" y="208" width="6" height="6" fill="#858585"/>
<rect x="50" y="214" width="6" height="6" fill="#858585"/>
<rect x="62" y="214" width="6" height="6" fill="#858585"/>
<rect x="68" y="214" width="6" height="6" fill="#858585"/>
<rect x="62" y="226" width="6" height="6" fill="#474747"/>
<rect x="68" y="226" width="6" height="6" fill="#474747"/>
<rect x="44" y="178" width="6" height="6" fill="white"/>
<rect x="44" y="184" width="6" height="6" fill="white"/>
<rect x="44" y="190" width="6" height="6" fill="white"/>
<rect x="38" y="232" width="6" height="6" fill="#9B9B9B"/>
<rect x="44" y="232" width="6" height="6" fill="#9B9B9B"/>
<rect x="38" y="238" width="6" height="6" fill="#9B9B9B"/>
<rect x="44" y="238" width="6" height="6" fill="#9B9B9B"/>
<rect x="50" y="178" width="6" height="6" fill="white"/>
<rect x="68" y="178" width="6" height="6" fill="white"/>
<rect x="50" y="184" width="6" height="6" fill="white"/>
<rect x="68" y="184" width="6" height="6" fill="white"/>
<rect x="50" y="190" width="6" height="6" fill="white"/>
<rect x="68" y="190" width="6" height="6" fill="white"/>
<rect x="50" y="202" width="6" height="6" fill="white"/>
<rect x="68" y="202" width="6" height="6" fill="white"/>
<rect x="50" y="208" width="6" height="6" fill="white"/>
<rect x="68" y="208" width="6" height="6" fill="white"/>
<rect x="38" y="190" width="6" height="6" fill="#D0D0D0"/>
<rect x="38" y="202" width="6" height="6" fill="#D0D0D0"/>
<rect x="38" y="208" width="6" height="6" fill="#D0D0D0"/>
<rect x="38" y="220" width="6" height="6" fill="#D0D0D0"/>
<rect x="44" y="220" width="6" height="6" fill="#D0D0D0"/>
<rect x="62" y="178" width="6" height="6" fill="#D0D0D0"/>
<rect x="62" y="184" width="6" height="6" fill="#D0D0D0"/>
<rect x="62" y="190" width="6" height="6" fill="#D0D0D0"/>
<rect x="50" y="220" width="6" height="6" fill="#D0D0D0"/>
<rect x="62" y="220" width="6" height="6" fill="#D0D0D0"/>
<rect x="68" y="220" width="6" height="6" fill="#D0D0D0"/>
<rect x="50" y="232" width="6" height="6" fill="#9B9B9B"/>
<rect x="62" y="232" width="6" height="6" fill="#9B9B9B"/>
<rect x="68" y="232" width="6" height="6" fill="#9B9B9B"/>
<rect x="50" y="238" width="6" height="6" fill="#9B9B9B"/>
<rect x="56" y="238" width="6" height="6" fill="#9B9B9B"/>
<rect x="68" y="238" width="6" height="6" fill="#9B9B9B"/>
<rect x="74" y="238" width="6" height="6" fill="#9B9B9B"/>
<rect x="56" y="142" width="6" height="6" fill="#60D9FF"/>
<rect x="62" y="142" width="6" height="6" fill="#60D9FF"/>
<rect x="56" y="136" width="6" height="6" fill="#60D9FF"/>
<rect x="62" y="136" width="6" height="6" fill="#60D9FF"/>
<rect x="32" y="118" width="6" height="6" fill="#858585"/>
<rect x="38" y="118" width="6" height="6" fill="white"/>
<rect x="26" y="124" width="6" height="6" fill="#858585"/>
<rect x="32" y="124" width="6" height="6" fill="#858585"/>
<rect x="38" y="124" width="6" height="6" fill="white"/>
<rect x="44" y="124" width="6" height="6" fill="#EBEBEB"/>
<rect x="44" y="130" width="6" height="6" fill="white"/>
<rect x="44" y="136" width="6" height="6" fill="white"/>
<rect x="50" y="124" width="6" height="6" fill="#EBEBEB"/>
<rect x="56" y="124" width="6" height="6" fill="#EBEBEB"/>
<rect x="62" y="124" width="6" height="6" fill="#EBEBEB"/>
<rect x="68" y="124" width="6" height="6" fill="#EBEBEB"/>
<rect x="50" y="130" width="6" height="6" fill="white"/>
<rect x="56" y="130" width="6" height="6" fill="white"/>
<rect x="62" y="130" width="6" height="6" fill="#EBEBEB"/>
<rect x="68" y="130" width="6" height="6" fill="#EBEBEB"/>
<rect x="74" y="118" width="6" height="6" fill="#474747"/>
<rect x="74" y="124" width="6" height="6" fill="#474747"/>
<rect x="74" y="130" width="6" height="6" fill="#474747"/>
<rect x="50" y="136" width="6" height="6" fill="white"/>
<rect x="56" y="148" width="6" height="6" fill="white"/>
<rect x="62" y="148" width="6" height="6" fill="white"/>
<rect x="68" y="136" width="6" height="6" fill="#EBEBEB"/>
<rect x="50" y="142" width="6" height="6" fill="white"/>
<rect x="68" y="142" width="6" height="6" fill="#EBEBEB"/>
<rect x="50" y="148" width="6" height="6" fill="white"/>
<rect x="68" y="148" width="6" height="6" fill="#EBEBEB"/>
<rect x="50" y="154" width="6" height="6" fill="white"/>
<rect x="56" y="154" width="6" height="6" fill="white"/>
<rect x="62" y="154" width="6" height="6" fill="white"/>
<rect x="68" y="154" width="6" height="6" fill="#EBEBEB"/>
<rect x="50" y="160" width="6" height="6" fill="white"/>
<rect x="56" y="160" width="6" height="6" fill="white"/>
<rect x="62" y="160" width="6" height="6" fill="white"/>
<rect x="68" y="160" width="6" height="6" fill="white"/>
<rect x="44" y="142" width="6" height="6" fill="#D0D0D0"/>
<rect x="44" y="148" width="6" height="6" fill="#D0D0D0"/>
<rect x="44" y="154" width="6" height="6" fill="#D0D0D0"/>
<rect x="44" y="160" width="6" height="6" fill="#D0D0D0"/>
<rect x="44" y="166" width="6" height="6" fill="#D0D0D0"/>
<rect x="50" y="166" width="6" height="6" fill="#D0D0D0"/>
<rect x="56" y="166" width="6" height="6" fill="#D0D0D0"/>
<rect x="62" y="166" width="6" height="6" fill="#D0D0D0"/>
<rect x="68" y="166" width="6" height="6" fill="#D0D0D0"/>
<rect x="44" y="172" width="6" height="6" fill="#474747"/>
<rect x="32" y="196" width="6" height="6" fill="#474747"/>
<rect x="32" y="202" width="6" height="6" fill="#474747"/>
<rect x="32" y="208" width="6" height="6" fill="#474747"/>
<rect x="32" y="214" width="6" height="6" fill="#474747"/>
<rect x="32" y="220" width="6" height="6" fill="#474747"/>
<rect x="32" y="226" width="6" height="6" fill="#474747"/>
<rect x="38" y="226" width="6" height="6" fill="#474747"/>
<rect x="44" y="226" width="6" height="6" fill="#474747"/>
<rect x="32" y="232" width="6" height="6" fill="#474747"/>
<rect x="32" y="238" width="6" height="6" fill="#474747"/>
<rect x="32" y="244" width="6" height="6" fill="#474747"/>
<rect x="38" y="244" width="6" height="6" fill="#474747"/>
<rect x="44" y="244" width="6" height="6" fill="#474747"/>
<rect x="50" y="172" width="6" height="6" fill="#474747"/>
<rect x="56" y="172" width="6" height="6" fill="#474747"/>
<rect x="62" y="172" width="6" height="6" fill="#474747"/>
<rect x="68" y="172" width="6" height="6" fill="#474747"/>
<rect x="56" y="178" width="6" height="6" fill="#474747"/>
<rect x="56" y="184" width="6" height="6" fill="#474747"/>
<rect x="56" y="190" width="6" height="6" fill="#474747"/>
<rect x="56" y="196" width="6" height="6" fill="#474747"/>
<rect x="56" y="202" width="6" height="6" fill="#474747"/>
<rect x="74" y="172" width="6" height="6" fill="#474747"/>
<rect x="74" y="178" width="6" height="6" fill="#474747"/>
<rect x="74" y="184" width="6" height="6" fill="#474747"/>
<rect x="74" y="190" width="6" height="6" fill="#474747"/>
<rect x="74" y="196" width="6" height="6" fill="#474747"/>
<rect x="74" y="202" width="6" height="6" fill="#474747"/>
<rect x="56" y="208" width="6" height="6" fill="#474747"/>
<rect x="56" y="214" width="6" height="6" fill="#474747"/>
<rect x="56" y="220" width="6" height="6" fill="#474747"/>
<rect x="50" y="226" width="6" height="6" fill="#474747"/>
<rect x="56" y="226" width="6" height="6" fill="#474747"/>
<rect x="56" y="232" width="6" height="6" fill="#474747"/>
<rect x="62" y="238" width="6" height="6" fill="#474747"/>
<rect x="74" y="208" width="6" height="6" fill="#474747"/>
<rect x="74" y="214" width="6" height="6" fill="#474747"/>
<rect x="74" y="220" width="6" height="6" fill="#474747"/>
<rect x="74" y="226" width="6" height="6" fill="#474747"/>
<rect x="74" y="232" width="6" height="6" fill="#474747"/>
<rect x="80" y="238" width="6" height="6" fill="#474747"/>
<rect x="50" y="244" width="6" height="6" fill="#474747"/>
<rect x="56" y="244" width="6" height="6" fill="#474747"/>
<rect x="62" y="244" width="6" height="6" fill="#474747"/>
<rect x="68" y="244" width="6" height="6" fill="#474747"/>
<rect x="74" y="244" width="6" height="6" fill="#474747"/>
<rect x="80" y="244" width="6" height="6" fill="#474747"/>
<rect x="20" y="124" width="6" height="6" fill="#474747"/>
<rect x="26" y="118" width="6" height="6" fill="#474747"/>
<rect x="74" y="136" width="6" height="6" fill="#474747"/>
<rect x="74" y="142" width="6" height="6" fill="#474747"/>
<rect x="74" y="148" width="6" height="6" fill="#474747"/>
<rect x="74" y="154" width="6" height="6" fill="#474747"/>
<rect x="74" y="160" width="6" height="6" fill="#474747"/>
<rect x="74" y="166" width="6" height="6" fill="#474747"/>
<rect x="26" y="184" width="6" height="6" fill="#9B9B9B"/>
<rect x="26" y="142" width="6" height="6" fill="#858585"/>
<rect x="32" y="148" width="6" height="6" fill="#858585"/>
<rect x="26" y="154" width="6" height="6" fill="#858585"/>
<rect x="32" y="130" width="6" height="6" fill="white"/>
<rect x="38" y="130" width="6" height="6" fill="white"/>
<rect x="32" y="136" width="6" height="6" fill="white"/>
<rect x="32" y="142" width="6" height="6" fill="white"/>
<rect x="26" y="148" width="6" height="6" fill="#858585"/>
<rect x="32" y="154" width="6" height="6" fill="white"/>
<rect x="32" y="160" width="6" height="6" fill="white"/>
<rect x="32" y="166" width="6" height="6" fill="white"/>
<rect x="26" y="172" width="6" height="6" fill="#D0D0D0"/>
<rect x="32" y="172" width="6" height="6" fill="#D0D0D0"/>
<rect x="26" y="130" width="6" height="6" fill="#D0D0D0"/>
<rect x="26" y="136" width="6" height="6" fill="#D0D0D0"/>
<rect x="26" y="160" width="6" height="6" fill="#D0D0D0"/>
<rect x="26" y="166" width="6" height="6" fill="#D0D0D0"/>
<rect x="20" y="172" width="6" height="6" fill="#474747"/>
<rect x="20" y="178" width="6" height="6" fill="#474747"/>
<rect x="20" y="184" width="6" height="6" fill="#474747"/>
<rect x="38" y="172" width="6" height="6" fill="#474747"/>
<rect x="26" y="178" width="6" height="6" fill="#474747"/>
<rect x="32" y="178" width="6" height="6" fill="#474747"/>
<rect x="38" y="178" width="6" height="6" fill="#474747"/>
<rect x="38" y="184" width="6" height="6" fill="#474747"/>
<rect x="26" y="190" width="6" height="6" fill="#474747"/>
<rect x="32" y="190" width="6" height="6" fill="#474747"/>
<rect x="20" y="130" width="6" height="6" fill="#474747"/>
<rect x="20" y="136" width="6" height="6" fill="#474747"/>
<rect x="20" y="142" width="6" height="6" fill="#474747"/>
<rect x="20" y="148" width="6" height="6" fill="#474747"/>
<rect x="20" y="154" width="6" height="6" fill="#474747"/>
<rect x="20" y="160" width="6" height="6" fill="#474747"/>
<rect x="20" y="166" width="6" height="6" fill="#474747"/>
<rect x="38" y="136" width="6" height="6" fill="#474747"/>
<rect x="38" y="142" width="6" height="6" fill="#474747"/>
<rect x="38" y="148" width="6" height="6" fill="#474747"/>
<rect x="38" y="154" width="6" height="6" fill="#474747"/>
<rect x="38" y="160" width="6" height="6" fill="#474747"/>
<rect x="38" y="166" width="6" height="6" fill="#474747"/>
<rect x="32" y="184" width="6" height="6" fill="#9B9B9B"/>
<rect x="116" y="136" width="6" height="6" transform="rotate(-90 116 136)" fill="#9B9B9B"/>
<rect x="86" y="136" width="6" height="6" transform="rotate(-90 86 136)" fill="#858585"/>
<rect x="92" y="130" width="6" height="6" transform="rotate(-90 92 130)" fill="#858585"/>
<rect x="98" y="136" width="6" height="6" transform="rotate(-90 98 136)" fill="#858585"/>
<rect x="80" y="130" width="6" height="6" transform="rotate(-90 80 130)" fill="white"/>
<rect x="86" y="130" width="6" height="6" transform="rotate(-90 86 130)" fill="white"/>
<rect x="92" y="136" width="6" height="6" transform="rotate(-90 92 136)" fill="#858585"/>
<rect x="98" y="130" width="6" height="6" transform="rotate(-90 98 130)" fill="white"/>
<rect x="104" y="130" width="6" height="6" transform="rotate(-90 104 130)" fill="white"/>
<rect x="110" y="130" width="6" height="6" transform="rotate(-90 110 130)" fill="#9B9B9B"/>
<rect x="116" y="136" width="6" height="6" transform="rotate(-90 116 136)" fill="#9DDCFF"/>
<rect x="116" y="130" width="6" height="6" transform="rotate(-90 116 130)" fill="#D0D0D0"/>
<rect x="80" y="136" width="6" height="6" transform="rotate(-90 80 136)" fill="#D0D0D0"/>
<rect x="104" y="136" width="6" height="6" transform="rotate(-90 104 136)" fill="#D0D0D0"/>
<rect x="110" y="136" width="6" height="6" transform="rotate(-90 110 136)" fill="#D0D0D0"/>
<rect x="116" y="142" width="6" height="6" transform="rotate(-90 116 142)" fill="#474747"/>
<rect x="110" y="142" width="6" height="6" transform="rotate(-90 110 142)" fill="#474747"/>
<rect x="116" y="142" width="6" height="6" transform="rotate(-90 116 142)" fill="#27B1FF"/>
<rect x="116" y="124" width="6" height="6" transform="rotate(-90 116 124)" fill="#474747"/>
<rect x="104" y="136" width="6" height="6" transform="rotate(-90 104 136)" fill="#474747"/>
<rect x="104" y="130" width="6" height="6" transform="rotate(-90 104 130)" fill="#474747"/>
<rect x="110" y="124" width="6" height="6" transform="rotate(-90 110 124)" fill="#474747"/>
<rect x="116" y="124" width="6" height="6" transform="rotate(-90 116 124)" fill="#27B1FF"/>
<rect x="122" y="136" width="6" height="6" transform="rotate(-90 122 136)" fill="#69C9FF"/>
<rect x="122" y="130" width="6" height="6" transform="rotate(-90 122 130)" fill="#69C9FF"/>
<rect x="80" y="142" width="6" height="6" transform="rotate(-90 80 142)" fill="#474747"/>
<rect x="86" y="142" width="6" height="6" transform="rotate(-90 86 142)" fill="#474747"/>
<rect x="92" y="142" width="6" height="6" transform="rotate(-90 92 142)" fill="#474747"/>
<rect x="98" y="142" width="6" height="6" transform="rotate(-90 98 142)" fill="#474747"/>
<rect x="104" y="142" width="6" height="6" transform="rotate(-90 104 142)" fill="#474747"/>
<rect x="110" y="142" width="6" height="6" transform="rotate(-90 110 142)" fill="#27B1FF"/>
<rect x="80" y="124" width="6" height="6" transform="rotate(-90 80 124)" fill="#474747"/>
<rect x="86" y="124" width="6" height="6" transform="rotate(-90 86 124)" fill="#474747"/>
<rect x="92" y="124" width="6" height="6" transform="rotate(-90 92 124)" fill="#474747"/>
<rect x="98" y="124" width="6" height="6" transform="rotate(-90 98 124)" fill="#474747"/>
<rect x="104" y="124" width="6" height="6" transform="rotate(-90 104 124)" fill="#474747"/>
<rect x="110" y="124" width="6" height="6" transform="rotate(-90 110 124)" fill="#27B1FF"/>
<rect x="116" y="130" width="6" height="6" transform="rotate(-90 116 130)" fill="#5297AC"/>
<rect x="98" y="220" width="6" height="6" fill="#27B1FF"/>
<rect x="110" y="196" width="6" height="6" fill="#27B1FF"/>
<rect x="104" y="202" width="6" height="6" fill="#69C9FF"/>
<rect x="104" y="208" width="6" height="6" fill="#27B1FF"/>
<rect x="98" y="214" width="6" height="6" fill="#27B1FF"/>
<path d="M86 226H92V232H86V226Z" fill="#27B1FF"/>
<rect x="92" y="220" width="6" height="6" fill="#69C9FF"/>
<rect x="134" y="148" width="6" height="6" fill="#27B1FF"/>
<rect x="134" y="154" width="6" height="6" fill="#27B1FF"/>
<rect x="128" y="160" width="6" height="6" fill="#27B1FF"/>
<rect x="128" y="166" width="6" height="6" fill="#69C9FF"/>
<rect x="122" y="172" width="6" height="6" fill="#27B1FF"/>
<rect x="122" y="178" width="6" height="6" fill="#27B1FF"/>
<rect x="116" y="184" width="6" height="6" fill="#69C9FF"/>
<rect x="116" y="190" width="6" height="6" fill="#27B1FF"/>
<path d="M80 22H86V28H80V22Z" fill="#27B1FF"/>
<rect x="86" y="22" width="6" height="6" fill="#27B1FF"/>
<rect x="92" y="28" width="6" height="6" fill="#27B1FF"/>
<rect x="98" y="34" width="6" height="6" fill="#27B1FF"/>
<rect x="104" y="40" width="6" height="6" fill="#69C9FF"/>
<rect x="104" y="46" width="6" height="6" fill="#27B1FF"/>
<rect x="110" y="52" width="6" height="6" fill="#27B1FF"/>
<rect x="110" y="58" width="6" height="6" fill="#69C9FF"/>
<rect x="110" y="64" width="6" height="6" fill="#27B1FF"/>
<rect x="116" y="70" width="6" height="6" fill="#27B1FF"/>
<rect x="116" y="76" width="6" height="6" fill="#27B1FF"/>
<rect x="122" y="82" width="6" height="6" fill="#69C9FF"/>
<rect x="122" y="88" width="6" height="6" fill="#27B1FF"/>
<rect x="128" y="94" width="6" height="6" fill="#27B1FF"/>
<rect x="128" y="100" width="6" height="6" fill="#27B1FF"/>
<rect x="134" y="106" width="6" height="6" fill="#27B1FF"/>
<rect x="134" y="112" width="6" height="6" fill="#27B1FF"/>
<rect x="134" y="118" width="6" height="6" fill="#69C9FF"/>
<rect x="134" y="124" width="6" height="6" fill="#27B1FF"/>
<rect x="128" y="130" width="6" height="6" fill="#27B1FF"/>
<rect x="128" y="124" width="6" height="6" fill="#27B1FF"/>
<rect x="134" y="130" width="6" height="6" fill="#27B1FF"/>
<rect x="134" y="136" width="6" height="6" fill="#69C9FF"/>
<rect x="134" y="142" width="6" height="6" fill="#27B1FF"/>
<rect x="110" y="202" width="6" height="6" fill="#3683DE"/>
<rect x="110" y="208" width="6" height="6" fill="#3683DE"/>
<rect x="104" y="214" width="6" height="6" fill="#3683DE"/>
<rect x="98" y="226" width="6" height="6" fill="#3683DE"/>
<rect x="104" y="220" width="6" height="6" fill="#3683DE"/>
<path d="M86 232H92V238H86V232Z" fill="#3683DE"/>
<rect x="92" y="226" width="6" height="6" fill="#3683DE"/>
<rect x="134" y="160" width="6" height="6" fill="#3683DE"/>
<rect x="134" y="166" width="6" height="6" fill="#3683DE"/>
<rect x="128" y="172" width="6" height="6" fill="#3683DE"/>
<rect x="128" y="178" width="6" height="6" fill="#3683DE"/>
<rect x="140" y="148" width="6" height="6" fill="#3683DE"/>
<rect x="140" y="154" width="6" height="6" fill="#3683DE"/>
<rect x="122" y="184" width="6" height="6" fill="#3683DE"/>
<rect x="122" y="190" width="6" height="6" fill="#3683DE"/>
<rect x="116" y="196" width="6" height="6" fill="#3683DE"/>
<rect x="80" y="16" width="6" height="6" fill="#3683DE"/>
<rect x="86" y="16" width="6" height="6" fill="#3683DE"/>
<rect x="92" y="22" width="6" height="6" fill="#3683DE"/>
<rect x="98" y="28" width="6" height="6" fill="#3683DE"/>
<rect x="104" y="34" width="6" height="6" fill="#3683DE"/>
<rect x="110" y="40" width="6" height="6" fill="#3683DE"/>
<rect x="110" y="46" width="6" height="6" fill="#3683DE"/>
<rect x="116" y="52" width="6" height="6" fill="#3683DE"/>
<rect x="116" y="58" width="6" height="6" fill="#3683DE"/>
<rect x="116" y="64" width="6" height="6" fill="#3683DE"/>
<rect x="122" y="64" width="6" height="6" fill="#3683DE"/>
<rect x="122" y="70" width="6" height="6" fill="#3683DE"/>
<rect x="122" y="76" width="6" height="6" fill="#3683DE"/>
<rect x="128" y="76" width="6" height="6" fill="#3683DE"/>
<rect x="128" y="82" width="6" height="6" fill="#3683DE"/>
<rect x="128" y="88" width="6" height="6" fill="#3683DE"/>
<rect x="134" y="88" width="6" height="6" fill="#3683DE"/>
<rect x="134" y="94" width="6" height="6" fill="#3683DE"/>
<rect x="134" y="100" width="6" height="6" fill="#3683DE"/>
<rect x="140" y="100" width="6" height="6" fill="#3683DE"/>
<rect x="140" y="106" width="6" height="6" fill="#3683DE"/>
<rect x="140" y="112" width="6" height="6" fill="#3683DE"/>
<rect x="140" y="118" width="6" height="6" fill="#3683DE"/>
<rect x="140" y="124" width="6" height="6" fill="#3683DE"/>
<rect x="140" y="130" width="6" height="6" fill="#3683DE"/>
<rect x="140" y="136" width="6" height="6" fill="#3683DE"/>
<rect x="140" y="142" width="6" height="6" fill="#3683DE"/>
</svg>
