<svg width="100" height="100" viewBox="0 0 100 100" fill="none" xmlns="http://www.w3.org/2000/svg">
<rect x="76.3529" y="8" width="4.88235" height="4.88235" fill="#A3A3A3"/>
<rect x="81.2354" y="8" width="4.88235" height="4.88235" fill="#A3A3A3"/>
<rect x="86.1177" y="8" width="4.88235" height="4.88235" fill="#A3A3A3"/>
<rect x="86.1177" y="12.8823" width="4.88235" height="4.88235" fill="#A3A3A3"/>
<rect x="86.1177" y="17.7647" width="4.88235" height="4.88235" fill="#A3A3A3"/>
<rect x="81.2354" y="22.647" width="4.88235" height="4.88235" fill="#A3A3A3"/>
<rect x="71.4706" y="12.8823" width="4.88235" height="4.88235" fill="#A3A3A3"/>
<rect x="47.0588" y="56.8235" width="4.88235" height="4.88235" fill="#A3A3A3"/>
<rect x="37.2941" y="47.0588" width="4.88235" height="4.88235" fill="#A3A3A3"/>
<rect x="51.9412" y="51.9412" width="4.88235" height="4.88235" fill="#A3A3A3"/>
<rect x="42.1765" y="42.1765" width="4.88235" height="4.88235" fill="#A3A3A3"/>
<rect x="56.8235" y="47.0588" width="4.88235" height="4.88235" fill="#A3A3A3"/>
<rect x="47.0588" y="37.2941" width="4.88235" height="4.88235" fill="#A3A3A3"/>
<rect x="61.7059" y="42.1765" width="4.88235" height="4.88235" fill="#A3A3A3"/>
<rect x="51.9412" y="32.4117" width="4.88235" height="4.88235" fill="#A3A3A3"/>
<rect x="66.5883" y="37.2941" width="4.88235" height="4.88235" fill="#A3A3A3"/>
<rect x="56.8235" y="27.5294" width="4.88235" height="4.88235" fill="#A3A3A3"/>
<rect x="71.4706" y="32.4117" width="4.88235" height="4.88235" fill="#A3A3A3"/>
<rect x="61.7059" y="22.647" width="4.88235" height="4.88235" fill="#A3A3A3"/>
<rect x="76.3529" y="27.5294" width="4.88235" height="4.88235" fill="#A3A3A3"/>
<rect x="66.5883" y="17.7647" width="4.88235" height="4.88235" fill="#A3A3A3"/>
<rect x="76.3529" y="12.8823" width="4.88235" height="4.88235" fill="#CACACA"/>
<rect x="81.2354" y="17.7647" width="4.88235" height="4.88235" fill="#CACACA"/>
<rect x="47.0588" y="42.1765" width="4.88235" height="4.88235" fill="#CACACA"/>
<rect x="51.9412" y="47.0588" width="4.88235" height="4.88235" fill="#CACACA"/>
<rect x="42.1765" y="47.0588" width="4.88235" height="4.88235" fill="#CACACA"/>
<rect x="47.0588" y="51.9412" width="4.88235" height="4.88235" fill="#CACACA"/>
<rect x="37.2941" y="51.9412" width="4.88235" height="4.88235" fill="#CACACA"/>
<rect x="42.1765" y="56.8235" width="4.88235" height="4.88235" fill="#CACACA"/>
<rect x="51.9412" y="37.2941" width="4.88235" height="4.88235" fill="#CACACA"/>
<rect x="56.8235" y="42.1765" width="4.88235" height="4.88235" fill="#CACACA"/>
<rect x="56.8235" y="32.4117" width="4.88235" height="4.88235" fill="#CACACA"/>
<rect x="61.7059" y="37.2941" width="4.88235" height="4.88235" fill="#CACACA"/>
<rect x="61.7059" y="27.5294" width="4.88235" height="4.88235" fill="#CACACA"/>
<rect x="66.5883" y="32.4117" width="4.88235" height="4.88235" fill="#CACACA"/>
<rect x="66.5883" y="22.647" width="4.88235" height="4.88235" fill="#CACACA"/>
<rect x="71.4706" y="27.5294" width="4.88235" height="4.88235" fill="#CACACA"/>
<rect x="71.4706" y="17.7647" width="4.88235" height="4.88235" fill="#CACACA"/>
<rect x="76.3529" y="22.647" width="4.88235" height="4.88235" fill="#CACACA"/>
<rect x="37.2941" y="56.8235" width="4.88235" height="4.88235" fill="#575757"/>
<rect x="51.9412" y="42.1765" width="4.88235" height="4.88235" fill="#575757"/>
<rect x="47.0588" y="47.0588" width="4.88235" height="4.88235" fill="#575757"/>
<rect x="42.1765" y="51.9412" width="4.88235" height="4.88235" fill="#575757"/>
<rect x="56.8235" y="37.2941" width="4.88235" height="4.88235" fill="#575757"/>
<rect x="71.4706" y="22.647" width="4.88235" height="4.88235" fill="#575757"/>
<rect x="66.5883" y="27.5294" width="4.88235" height="4.88235" fill="#575757"/>
<rect x="81.2354" y="12.8823" width="4.88235" height="4.88235" fill="#575757"/>
<rect x="76.3529" y="17.7647" width="4.88235" height="4.88235" fill="#575757"/>
<rect x="61.7059" y="32.4117" width="4.88235" height="4.88235" fill="#575757"/>
<rect x="32.4117" y="51.9412" width="4.88235" height="4.88235" fill="#C4C4C4"/>
<rect x="27.5294" y="47.0588" width="4.88235" height="4.88235" fill="#C4C4C4"/>
<rect x="22.6471" y="42.1765" width="4.88235" height="4.88235" fill="#C4C4C4"/>
<rect x="27.5294" y="61.7059" width="4.88235" height="4.88235" fill="#C4C4C4"/>
<rect x="32.4117" y="66.5883" width="4.88235" height="4.88235" fill="#C4C4C4"/>
<rect x="32.4117" y="56.8235" width="4.88235" height="4.88235" fill="#C4C4C4"/>
<rect x="37.2941" y="71.4706" width="4.88235" height="4.88235" fill="#C4C4C4"/>
<rect x="42.1765" y="71.4706" width="4.88235" height="4.88235" fill="#C4C4C4"/>
<rect x="37.2941" y="61.7059" width="4.88235" height="4.88235" fill="#C4C4C4"/>
<rect x="42.1765" y="61.7059" width="4.88235" height="4.88235" fill="#C4C4C4"/>
<rect x="47.0588" y="66.5883" width="4.88235" height="4.88235" fill="#C4C4C4"/>
<rect x="51.9412" y="71.4706" width="4.88235" height="4.88235" fill="#C4C4C4"/>
<rect x="51.9412" y="76.353" width="4.88235" height="4.88235" fill="#C4C4C4"/>
<rect x="47.0588" y="76.353" width="4.88235" height="4.88235" fill="#C4C4C4"/>
<rect x="22.6471" y="56.8235" width="4.88235" height="4.88235" fill="#C4C4C4"/>
<rect x="12.8823" y="76.353" width="4.88235" height="4.88235" fill="#C4C4C4"/>
<rect x="17.7646" y="81.2353" width="4.88235" height="4.88235" fill="#C4C4C4"/>
<rect x="17.7646" y="86.1177" width="4.88235" height="4.88235" fill="#C4C4C4"/>
<rect x="12.8823" y="86.1177" width="4.88235" height="4.88235" fill="#C4C4C4"/>
<rect x="8" y="76.353" width="4.88235" height="4.88235" fill="#C4C4C4"/>
<rect x="8" y="81.2353" width="4.88235" height="4.88235" fill="#C4C4C4"/>
<rect x="8" y="86.1177" width="4.88235" height="4.88235" fill="#C4C4C4"/>
<rect x="12.8823" y="81.2353" width="4.88235" height="4.88235" fill="#6C6C6C"/>
<rect x="25.902" y="69.8431" width="4.88235" height="4.88235" fill="#C4C4C4"/>
<rect x="22.6471" y="51.9412" width="4.88235" height="4.88235" fill="#C4C4C4"/>
<rect x="17.7646" y="47.0588" width="4.88235" height="4.88235" fill="#C4C4C4"/>
<rect x="27.5294" y="51.9412" width="4.88235" height="4.88235" fill="#6C6C6C"/>
<rect x="22.6471" y="47.0588" width="4.88235" height="4.88235" fill="#6C6C6C"/>
<rect x="27.5294" y="56.8235" width="4.88235" height="4.88235" fill="#6C6C6C"/>
<rect x="32.4117" y="61.7059" width="4.88235" height="4.88235" fill="#6C6C6C"/>
<rect x="37.2941" y="66.5883" width="4.88235" height="4.88235" fill="#6C6C6C"/>
<rect x="42.1765" y="66.5883" width="4.88235" height="4.88235" fill="#6C6C6C"/>
<rect x="47.0588" y="71.4706" width="4.88235" height="4.88235" fill="#6C6C6C"/>
<rect x="17.7646" y="42.1765" width="4.88235" height="4.88235" fill="#C4C4C4"/>
<rect x="27.5294" y="66.5883" width="4.88235" height="4.88235" fill="#A05523"/>
<rect x="22.6471" y="71.4706" width="4.88235" height="4.88235" fill="#A05523"/>
<rect x="17.7646" y="76.353" width="4.88235" height="4.88235" fill="#A05523"/>
<rect x="22.6471" y="66.5883" width="4.88235" height="4.88235" fill="#7F3300"/>
<rect x="17.7646" y="71.4706" width="4.88235" height="4.88235" fill="#7F3300"/>
<rect x="27.5294" y="71.4706" width="4.88235" height="4.88235" fill="#3F210E"/>
<rect x="22.6471" y="76.353" width="4.88235" height="4.88235" fill="#3F210E"/>
</svg>
