<svg width="100" height="100" viewBox="0 0 100 100" fill="none" xmlns="http://www.w3.org/2000/svg">
<rect x="50.2273" y="13.2454" width="8.24545" height="8.24545" fill="#A2A2A2"/>
<rect x="50.2273" y="21.4908" width="8.24545" height="8.24545" fill="#A2A2A2"/>
<rect x="58.4727" y="21.4908" width="8.24545" height="8.24545" fill="#A2A2A2"/>
<rect x="66.7183" y="21.4908" width="8.24545" height="8.24545" fill="#A2A2A2"/>
<rect x="66.7183" y="29.7363" width="8.24545" height="8.24545" fill="#A2A2A2"/>
<rect x="74.9637" y="29.7363" width="8.24545" height="8.24545" fill="#A2A2A2"/>
<rect x="58.4727" y="29.7363" width="8.24545" height="8.24545" fill="#A2A2A2"/>
<rect x="50.2273" y="29.7363" width="8.24545" height="8.24545" fill="#A2A2A2"/>
<rect x="50.2273" y="37.9818" width="8.24545" height="8.24545" fill="#A2A2A2"/>
<rect x="58.4727" y="37.9818" width="8.24545" height="8.24545" fill="#A2A2A2"/>
<rect x="66.7183" y="37.9818" width="8.24545" height="8.24545" fill="#A2A2A2"/>
<rect x="74.9637" y="46.2272" width="8.24545" height="8.24545" fill="#A2A2A2"/>
<rect x="66.7183" y="46.2272" width="8.24545" height="8.24545" fill="#A2A2A2"/>
<rect x="74.9637" y="37.9818" width="8.24545" height="8.24545" fill="#A2A2A2"/>
<rect x="50.2273" y="46.2272" width="8.24545" height="8.24545" fill="#878787"/>
<rect x="50.2273" y="79.209" width="8.24545" height="8.24545" fill="#878787"/>
<rect x="58.4727" y="70.9637" width="8.24545" height="8.24545" fill="#878787"/>
<rect x="50.2273" y="70.9637" width="8.24545" height="8.24545" fill="#878787"/>
<rect x="66.7183" y="62.7181" width="8.24545" height="8.24545" fill="#878787"/>
<rect x="58.4727" y="62.7181" width="8.24545" height="8.24545" fill="#878787"/>
<rect x="50.2273" y="62.7181" width="8.24545" height="8.24545" fill="#878787"/>
<rect x="66.7183" y="54.4727" width="8.24545" height="8.24545" fill="#878787"/>
<rect x="58.4727" y="54.4727" width="8.24545" height="8.24545" fill="#878787"/>
<rect x="50.2273" y="54.4727" width="8.24545" height="8.24545" fill="#878787"/>
<rect x="58.4727" y="46.2272" width="8.24545" height="8.24545" fill="#878787"/>
<rect width="8.24545" height="8.24545" transform="matrix(-1 0 0 1 50.2273 13.2454)" fill="#666666"/>
<rect width="8.24545" height="8.24545" transform="matrix(-1 0 0 1 50.2273 21.4908)" fill="#666666"/>
<rect width="8.24545" height="8.24545" transform="matrix(-1 0 0 1 41.9818 21.4908)" fill="#666666"/>
<rect width="8.24545" height="8.24545" transform="matrix(-1 0 0 1 33.7365 21.4908)" fill="#666666"/>
<rect width="8.24545" height="8.24545" transform="matrix(-1 0 0 1 33.7365 29.7363)" fill="#666666"/>
<rect width="8.24545" height="8.24545" transform="matrix(-1 0 0 1 25.4908 29.7363)" fill="#666666"/>
<rect width="8.24545" height="8.24545" transform="matrix(-1 0 0 1 41.9818 29.7363)" fill="#666666"/>
<rect width="8.24545" height="8.24545" transform="matrix(-1 0 0 1 50.2273 29.7363)" fill="#666666"/>
<rect width="8.24545" height="8.24545" transform="matrix(-1 0 0 1 50.2273 37.9818)" fill="#666666"/>
<rect width="8.24545" height="8.24545" transform="matrix(-1 0 0 1 41.9818 37.9818)" fill="#666666"/>
<rect width="8.24545" height="8.24545" transform="matrix(-1 0 0 1 33.7365 37.9818)" fill="#666666"/>
<rect width="8.24545" height="8.24545" transform="matrix(-1 0 0 1 25.4908 46.2272)" fill="#666666"/>
<rect width="8.24545" height="8.24545" transform="matrix(-1 0 0 1 33.7365 46.2272)" fill="#666666"/>
<rect width="8.24545" height="8.24545" transform="matrix(-1 0 0 1 25.4908 37.9818)" fill="#666666"/>
<rect width="8.24545" height="8.24545" transform="matrix(-1 0 0 1 50.2273 46.2272)" fill="#494949"/>
<rect width="8.24545" height="8.24545" transform="matrix(-1 0 0 1 50.2273 79.209)" fill="#494949"/>
<rect width="8.24545" height="8.24545" transform="matrix(-1 0 0 1 41.9818 70.9637)" fill="#494949"/>
<rect width="8.24545" height="8.24545" transform="matrix(-1 0 0 1 50.2273 70.9637)" fill="#494949"/>
<rect width="8.24545" height="8.24545" transform="matrix(-1 0 0 1 33.7365 62.7181)" fill="#494949"/>
<rect width="8.24545" height="8.24545" transform="matrix(-1 0 0 1 41.9818 62.7181)" fill="#494949"/>
<rect width="8.24545" height="8.24545" transform="matrix(-1 0 0 1 50.2273 62.7181)" fill="#494949"/>
<rect width="8.24545" height="8.24545" transform="matrix(-1 0 0 1 33.7365 54.4727)" fill="#494949"/>
<rect width="8.24545" height="8.24545" transform="matrix(-1 0 0 1 41.9818 54.4727)" fill="#494949"/>
<rect width="8.24545" height="8.24545" transform="matrix(-1 0 0 1 50.2273 54.4727)" fill="#494949"/>
<rect width="8.24545" height="8.24545" transform="matrix(-1 0 0 1 41.9818 46.2272)" fill="#494949"/>
<rect x="50.2273" y="5" width="8.24545" height="8.24545" fill="#262626"/>
<rect x="83.2091" y="46.2272" width="8.24545" height="8.24545" fill="#262626"/>
<rect x="74.9637" y="54.4727" width="8.24545" height="8.24545" fill="#262626"/>
<rect x="74.9637" y="62.7181" width="8.24545" height="8.24545" fill="#262626"/>
<rect x="66.7183" y="70.9636" width="8.24545" height="8.24545" fill="#262626"/>
<rect x="58.4727" y="79.209" width="8.24545" height="8.24545" fill="#262626"/>
<rect x="50.2273" y="87.4545" width="8.24545" height="8.24545" fill="#262626"/>
<rect x="83.2091" y="37.9818" width="8.24545" height="8.24545" fill="#262626"/>
<rect x="83.2091" y="29.7363" width="8.24545" height="8.24545" fill="#262626"/>
<rect x="74.9637" y="21.4908" width="8.24545" height="8.24545" fill="#262626"/>
<rect x="66.7183" y="13.2454" width="8.24545" height="8.24545" fill="#262626"/>
<rect x="58.4727" y="13.2454" width="8.24545" height="8.24545" fill="#262626"/>
<rect width="8.24545" height="8.24545" transform="matrix(-1 0 0 1 50.2274 5)" fill="#262626"/>
<rect width="8.24545" height="8.24545" transform="matrix(-1 0 0 1 17.2455 46.2272)" fill="#262626"/>
<rect width="8.24545" height="8.24545" transform="matrix(-1 0 0 1 25.491 54.4727)" fill="#262626"/>
<rect width="8.24545" height="8.24545" transform="matrix(-1 0 0 1 25.491 62.7181)" fill="#262626"/>
<rect width="8.24545" height="8.24545" transform="matrix(-1 0 0 1 33.7366 70.9636)" fill="#262626"/>
<rect width="8.24545" height="8.24545" transform="matrix(-1 0 0 1 41.9819 79.209)" fill="#262626"/>
<rect width="8.24545" height="8.24545" transform="matrix(-1 0 0 1 50.2274 87.4545)" fill="#262626"/>
<rect width="8.24545" height="8.24545" transform="matrix(-1 0 0 1 17.2455 37.9818)" fill="#262626"/>
<rect width="8.24545" height="8.24545" transform="matrix(-1 0 0 1 17.2455 29.7363)" fill="#262626"/>
<rect width="8.24545" height="8.24545" transform="matrix(-1 0 0 1 25.491 21.4909)" fill="#262626"/>
<rect width="8.24545" height="8.24545" transform="matrix(-1 0 0 1 33.7366 13.2454)" fill="#262626"/>
<rect width="8.24545" height="8.24545" transform="matrix(-1 0 0 1 41.9819 13.2454)" fill="#262626"/>
<rect x="85" y="13" width="5" height="5" fill="#33E130"/>
<rect x="85" y="28" width="5" height="5" fill="#33E130"/>
<rect x="85" y="23" width="5" height="5" fill="#33E130"/>
<rect x="85" y="18" width="5" height="5" fill="#33E130"/>
<rect x="85" y="8" width="5" height="5" fill="#33E130"/>
<rect x="85" y="3" width="5" height="5" fill="#33E130"/>
<rect x="80" y="8" width="5" height="5" fill="#33E130"/>
<rect x="75" y="13" width="5" height="5" fill="#33E130"/>
<rect x="95" y="13" width="5" height="5" fill="#33E130"/>
<rect x="90" y="13" width="5" height="5" fill="#33E130"/>
<rect x="80" y="13" width="5" height="5" fill="#33E130"/>
<rect x="90" y="8" width="5" height="5" fill="#33E130"/>
</svg>
