<svg width="100" height="100" viewBox="0 0 100 100" fill="none" xmlns="http://www.w3.org/2000/svg">
<rect x="66" y="18" width="10.8" height="10.8" fill="#E40E0E"/>
<rect x="55.2" y="18" width="10.8" height="10.8" fill="#E40E0E"/>
<rect x="44.4" y="18" width="10.8" height="10.8" fill="#E40E0E"/>
<rect x="33.6" y="18" width="10.8" height="10.8" fill="#E40E0E"/>
<rect x="55.6" y="8" width="10.8" height="10.8" fill="#484848"/>
<rect x="44.8" y="8" width="10.8" height="10.8" fill="#484848"/>
<rect x="34" y="8" width="10.8" height="10.8" fill="#484848"/>
<rect x="22.8" y="18" width="10.8" height="10.8" fill="#E40E0E"/>
<rect x="12" y="18" width="10.8" height="10.8" fill="#E40E0E"/>
<rect x="66" y="61.2" width="10.8" height="10.8" fill="white"/>
<rect x="55.2" y="61.2" width="10.8" height="10.8" fill="white"/>
<rect x="44.4" y="61.2" width="10.8" height="10.8" fill="#E40E0E"/>
<rect x="33.6" y="61.2" width="10.8" height="10.8" fill="white"/>
<rect x="22.8" y="61.2" width="10.8" height="10.8" fill="white"/>
<rect x="12" y="61.2" width="10.8" height="10.8" fill="white"/>
<rect x="66" y="28.8" width="10.8" height="10.8" fill="white"/>
<rect x="55.2" y="28.8" width="10.8" height="10.8" fill="white"/>
<rect x="44.4" y="28.8" width="10.8" height="10.8" fill="white"/>
<rect x="33.6" y="28.8" width="10.8" height="10.8" fill="white"/>
<rect x="22.8" y="28.8" width="10.8" height="10.8" fill="white"/>
<rect x="12" y="28.8" width="10.8" height="10.8" fill="white"/>
<rect x="66" y="39.6" width="10.8" height="10.8" fill="white"/>
<rect x="55.2" y="39.6" width="10.8" height="10.8" fill="white"/>
<rect x="44.4" y="39.6" width="10.8" height="10.8" fill="#E40E0E"/>
<rect x="33.6" y="39.6" width="10.8" height="10.8" fill="white"/>
<rect x="22.8" y="39.6" width="10.8" height="10.8" fill="white"/>
<rect x="12" y="39.6" width="10.8" height="10.8" fill="white"/>
<rect x="66" y="50.4" width="10.8" height="10.8" fill="white"/>
<rect x="76.8" y="18" width="10.8" height="10.8" fill="#E40E0E"/>
<rect x="76.8" y="61.2" width="10.8" height="10.8" fill="white"/>
<rect x="65.9999" y="72" width="10.8" height="10.8" fill="white"/>
<rect x="55.2" y="72" width="10.8" height="10.8" fill="white"/>
<rect x="44.4" y="72" width="10.8" height="10.8" fill="white"/>
<rect x="33.6" y="72" width="10.8" height="10.8" fill="white"/>
<rect x="22.8" y="72" width="10.8" height="10.8" fill="white"/>
<rect x="76.8" y="28.8" width="10.8" height="10.8" fill="white"/>
<rect x="76.8" y="39.6" width="10.8" height="10.8" fill="white"/>
<rect x="76.8" y="50.4" width="10.8" height="10.8" fill="white"/>
<rect x="55.2" y="50.4" width="10.8" height="10.8" fill="#E40E0E"/>
<rect x="44.4" y="50.4" width="10.8" height="10.8" fill="#E40E0E"/>
<rect x="33.6" y="50.4" width="10.8" height="10.8" fill="#E40E0E"/>
<rect x="22.8" y="50.4" width="10.8" height="10.8" fill="white"/>
<rect x="12" y="50.4" width="10.8" height="10.8" fill="white"/>
</svg>
