<svg width="100" height="100" viewBox="0 0 100 100" fill="none" xmlns="http://www.w3.org/2000/svg">
<rect x="27.2824" y="43.6412" width="3.32061" height="3.32061" fill="#484848"/>
<rect x="33.9236" y="37" width="3.32061" height="3.32061" fill="#D46600"/>
<rect x="37.2443" y="37" width="3.32061" height="3.32061" fill="#D46600"/>
<rect x="40.5648" y="37" width="3.32061" height="3.32061" fill="#D46600"/>
<rect x="30.603" y="40.3206" width="3.32061" height="3.32061" fill="#D46600"/>
<rect x="30.603" y="43.6412" width="3.32061" height="3.32061" fill="#484848"/>
<rect x="33.9236" y="43.6412" width="3.32061" height="3.32061" fill="#484848"/>
<rect x="37.2443" y="43.6412" width="3.32061" height="3.32061" fill="#484848"/>
<rect x="40.5648" y="43.6412" width="3.32061" height="3.32061" fill="#484848"/>
<rect x="33.9236" y="46.9618" width="3.32061" height="3.32061" fill="#5F5F5F"/>
<rect x="37.2443" y="46.9618" width="3.32061" height="3.32061" fill="#5F5F5F"/>
<rect x="40.5648" y="46.9618" width="3.32061" height="3.32061" fill="#5F5F5F"/>
<rect x="33.9236" y="50.2824" width="3.32061" height="3.32061" fill="#5F5F5F"/>
<rect x="37.2443" y="50.2824" width="3.32061" height="3.32061" fill="#5F5F5F"/>
<rect x="40.5648" y="50.2824" width="3.32061" height="3.32061" fill="#5F5F5F"/>
<rect x="43.8854" y="37" width="3.32061" height="3.32061" fill="#D46600"/>
<rect x="47.2061" y="37" width="3.32061" height="3.32061" fill="#D46600"/>
<rect x="50.5267" y="37" width="3.32061" height="3.32061" fill="#D46600"/>
<rect x="50.5267" y="40.3206" width="3.32061" height="3.32061" fill="#D46600"/>
<rect x="43.8854" y="43.6412" width="3.32061" height="3.32061" fill="#484848"/>
<rect x="47.2061" y="43.6412" width="3.32061" height="3.32061" fill="#484848"/>
<rect x="50.5267" y="43.6412" width="3.32061" height="3.32061" fill="#484848"/>
<rect x="53.8473" y="43.6412" width="3.32061" height="3.32061" fill="#484848"/>
<rect x="43.8854" y="46.9618" width="3.32061" height="3.32061" fill="#5F5F5F"/>
<rect x="47.2061" y="46.9618" width="3.32061" height="3.32061" fill="#5F5F5F"/>
<rect x="50.5267" y="46.9618" width="3.32061" height="3.32061" fill="#5F5F5F"/>
<rect x="53.8473" y="46.9618" width="3.32061" height="3.32061" fill="#D46600"/>
<rect x="43.8854" y="50.2824" width="3.32061" height="3.32061" fill="#5F5F5F"/>
<rect x="47.2061" y="50.2824" width="3.32061" height="3.32061" fill="#5F5F5F"/>
<rect x="50.5267" y="50.2824" width="3.32061" height="3.32061" fill="#5F5F5F"/>
<rect x="33.9236" y="53.603" width="3.32061" height="3.32061" fill="#5F5F5F"/>
<rect x="47.2061" y="53.603" width="3.32061" height="3.32061" fill="#D46600"/>
<rect x="50.5267" y="53.603" width="3.32061" height="3.32061" fill="#D46600"/>
<rect x="47.2061" y="56.9236" width="3.32061" height="3.32061" fill="#D46600"/>
<rect x="50.5267" y="56.9236" width="3.32061" height="3.32061" fill="#D46600"/>
<rect x="47.2061" y="60.2443" width="3.32061" height="3.32061" fill="#D46600"/>
<rect x="50.5267" y="60.2443" width="3.32061" height="3.32061" fill="#D46600"/>
<rect x="57.1678" y="43.6412" width="3.32061" height="3.32061" fill="#484848"/>
<rect x="60.4885" y="43.6412" width="3.32061" height="3.32061" fill="#484848"/>
<rect x="63.8091" y="43.6412" width="3.32061" height="3.32061" fill="#484848"/>
<rect x="67.1297" y="43.6412" width="3.32061" height="3.32061" fill="#484848"/>
<rect x="57.1678" y="46.9618" width="3.32061" height="3.32061" fill="#D46600"/>
<rect x="60.4885" y="46.9618" width="3.32061" height="3.32061" fill="#D46600"/>
<rect x="63.8091" y="46.9618" width="3.32061" height="3.32061" fill="#D46600"/>
<rect x="67.1297" y="46.9618" width="3.32061" height="3.32061" fill="#D46600"/>
<rect x="70.4503" y="43.6412" width="3.32061" height="3.32061" fill="#484848"/>
<rect x="73.7709" y="43.6412" width="3.32061" height="3.32061" fill="#484848"/>
<rect x="77.0915" y="43.6412" width="3.32061" height="3.32061" fill="#484848"/>
<rect x="80.4121" y="43.6412" width="3.32061" height="3.32061" fill="#484848"/>
<rect x="70.4503" y="46.9618" width="3.32061" height="3.32061" fill="#D46600"/>
<rect x="73.7709" y="46.9618" width="3.32061" height="3.32061" fill="#D46600"/>
<rect x="83.7327" y="43.6412" width="3.32061" height="3.32061" fill="#484848"/>
<rect x="87.0533" y="43.6412" width="3.32061" height="3.32061" fill="#484848"/>
<rect x="90.3739" y="43.6412" width="3.32061" height="3.32061" fill="#484848"/>
<rect x="93.6945" y="43.6412" width="3.32061" height="3.32061" fill="#484848"/>
<rect x="14" y="43.6412" width="3.32061" height="3.32061" fill="#484848"/>
<rect x="17.3206" y="43.6412" width="3.32061" height="3.32061" fill="#484848"/>
<rect x="20.6412" y="43.6412" width="3.32061" height="3.32061" fill="#484848"/>
<rect x="23.9618" y="43.6412" width="3.32061" height="3.32061" fill="#484848"/>
<rect x="14" y="46.9618" width="3.32061" height="3.32061" fill="#484848"/>
<rect x="17.3206" y="46.9618" width="3.32061" height="3.32061" fill="#D46600"/>
<rect x="20.6412" y="46.9618" width="3.32061" height="3.32061" fill="#D46600"/>
<rect x="23.9618" y="46.9618" width="3.32061" height="3.32061" fill="#484848"/>
<rect x="14" y="50.2824" width="3.32061" height="3.32061" fill="#484848"/>
<rect x="17.3206" y="50.2824" width="3.32061" height="3.32061" fill="#D46600"/>
<rect x="14" y="53.603" width="3.32061" height="3.32061" fill="#484848"/>
<rect x="85" y="13" width="5" height="5" fill="#33E130"/>
<rect x="85" y="28" width="5" height="5" fill="#33E130"/>
<rect x="85" y="23" width="5" height="5" fill="#33E130"/>
<rect x="85" y="18" width="5" height="5" fill="#33E130"/>
<rect x="85" y="8" width="5" height="5" fill="#33E130"/>
<rect x="85" y="3" width="5" height="5" fill="#33E130"/>
<rect x="80" y="8" width="5" height="5" fill="#33E130"/>
<rect x="75" y="13" width="5" height="5" fill="#33E130"/>
<rect x="95" y="13" width="5" height="5" fill="#33E130"/>
<rect x="90" y="13" width="5" height="5" fill="#33E130"/>
<rect x="80" y="13" width="5" height="5" fill="#33E130"/>
<rect x="90" y="8" width="5" height="5" fill="#33E130"/>
</svg>
